<svg xmlns="http://www.w3.org/2000/svg" width="1022.49" height="1047.365" viewBox="0 0 1022.49 1047.365">
    <g id="Raggruppa_8" data-name="Raggruppa 8" transform="translate(-457.382 -13.674)">
        <g id="Raggruppa_5" data-name="Raggruppa 5">
            <path id="Tracciato_1" data-name="Tracciato 1" d="M0,0,253.618-137.674V150.979L0,300Z" transform="translate(715 754)" fill="#fff" stroke="#fff" stroke-linecap="round" stroke-width="8"/>
            <path id="Tracciato_2" data-name="Tracciato 2" d="M246.016.239,0-137.674V150.979L246.016,299.941Z" transform="translate(461.382 754)" fill="none" stroke="#fff" stroke-linecap="round" stroke-width="8"/>
            <path id="Tracciato_3" data-name="Tracciato 3" d="M503.118,159.619,253.618,18.3,4.136,159.6,253.618,300Z" transform="translate(461.382 450)" fill="none" stroke="#fff" stroke-linecap="round" stroke-width="8"/>
        </g>
        <g id="Raggruppa_9" data-name="Raggruppa 9" transform="translate(507.235)">
            <path id="Tracciato_1-2" data-name="Tracciato 1" d="M0,0,253.618-137.674V150.979L0,300Z" transform="translate(715 754)" fill="#fff" stroke="#fff" stroke-linecap="round" stroke-width="8"/>
            <path id="Tracciato_2-2" data-name="Tracciato 2" d="M246.016.239,0-137.674V150.979L246.016,299.941Z" transform="translate(461.382 754)" fill="none" stroke="#fff" stroke-linecap="round" stroke-width="8"/>
            <path id="Tracciato_3-2" data-name="Tracciato 3" d="M503.118,159.619,253.618,18.3,4.136,159.6,253.618,300Z" transform="translate(461.382 450)" fill="none" stroke="#fff" stroke-linecap="round" stroke-width="8"/>
        </g>
        <g id="Raggruppa_10" data-name="Raggruppa 10" transform="translate(253.618 -450)">
            <path id="Tracciato_1-3" data-name="Tracciato 1" d="M0,0,249.917-135.817V157.609L0,300Z" transform="translate(715 754)" fill="#fff" stroke="#fff" stroke-linecap="round" stroke-width="8"/>
            <path id="Tracciato_2-3" data-name="Tracciato 2" d="M246.016.239,4.271-136.2V157.609L246.016,299.941Z" transform="translate(461.382 754)" fill="none" stroke="#fff" stroke-linecap="round" stroke-width="8"/>
            <path id="Tracciato_3-3" data-name="Tracciato 3" d="M499.952,161.415,253.618,18.3,7.855,161.017,253.618,300Z" transform="translate(461.382 450)" fill="none" stroke="#fff" stroke-linecap="round" stroke-width="8"/>
        </g>
    </g>
</svg>
